<?xml version="1.0" encoding="utf-8"?>
<!-- Generator: Adobe Illustrator 16.0.3, SVG Export Plug-In . SVG Version: 6.00 Build 0)  -->
<!DOCTYPE svg PUBLIC "-//W3C//DTD SVG 1.1//EN" "http://www.w3.org/Graphics/SVG/1.1/DTD/svg11.dtd">
<svg version="1.1" id="Icon" xmlns="http://www.w3.org/2000/svg" xmlns:xlink="http://www.w3.org/1999/xlink" x="0px" y="0px"
	 width="612px" height="792px" viewBox="0 0 612 792" enable-background="new 0 0 612 792" xml:space="preserve">
<path fill="#FFFFFF" d="M605.5,687.3l-383.9,0.5c-3.5-0.3-6-1.1-4.7-5.3l141-180.8c4.9-6.9,12.2-10.7,19.6-10.4l70.9-0.2
	c11.5,0,15.9,3.3,22.3,11.3l138.1,178.3C610.2,683.9,609.1,687,605.5,687.3z M198.7,299.8l55,28.9c8.6,4.5,12.1,15.7,8,25
	l-64.4,144.2c-4.2,9.3-14.5,13.2-23,8.7l-55-28.9c-8.6-4.5-12.1-15.7-8-25l64.4-144.2C179.8,299.2,190.1,295.3,198.7,299.8z
	 M114.3,295.8h126.9c8.1,0,14.7,5.6,14.7,12.5v25.8c0,6.9-6.6,12.5-14.7,12.5H114.3c-8.1,0-14.7-5.6-14.7-12.5v-25.8
	C99.6,301.4,106.1,295.8,114.3,295.8z M44.3,408.4l55.4-104.4c3.5-6.7,10-8.9,14.3-5l16.3,14.6c4.4,3.9,5,12.5,1.5,19.2L76.5,437.2
	c-3.5,6.7-10,8.9-14.3,5l-16.3-14.6C41.4,423.7,40.7,415.1,44.3,408.4z M94.6,419.3l328.3,173.1c21,11.1,36.9,22.5,35.5,25.4
	l-5.4,11.1c-1.4,3-19.6-3.6-40.7-14.7L84.1,441.1c-21-11.1-36.9-22.5-35.5-25.4l5.4-11.1C55.4,401.6,73.6,408.2,94.6,419.3z
	 M243.7,502.8l-9.8-170.9c-0.6-10.9,3.5-20.2,9.2-20.6l21.4-1.6c5.7-0.4,10.9,8.1,11.5,19l9.8,170.9c0.6,10.9-3.5,20.2-9.2,20.6
	l-21.4,1.6C249.5,522.2,244.3,513.7,243.7,502.8z M285.8,222.9c25.8,0,46.8,22.1,46.8,49.4c0,27.3-20.9,49.4-46.8,49.4
	c-25.8,0-46.8-22.1-46.8-49.4C239.1,245,260,222.9,285.8,222.9z M161.4,580l-23.2-96.3c-1.5-6.2,2.6-12.1,9.2-13.2l24.4-4.2
	c6.5-1.1,13,3,14.5,9.1l23.2,96.3c1.5,6.2-2.6,12.1-9.2,13.2l-24.4,4.2C169.4,590.2,162.9,586.1,161.4,580z M162.1,673.1l-0.8-99.3
	c0-6.4,5.3-11.1,11.9-10.6l24.7,1.9c6.6,0.5,12,6.1,12.1,12.4l0.8,99.3c0,6.4-5.3,11.1-11.9,10.6l-24.7-1.9
	C167.6,685.1,162.1,679.5,162.1,673.1z M7.5,640.6l98.3-172.8c6.3-11.1,15.9-16.9,21.5-13l20.7,14.6c5.6,3.9,4.9,16-1.3,27.1
	L48.3,669.3c-6.3,11.1-15.9,16.9-21.5,13L6.1,667.7C0.6,663.8,1.2,651.6,7.5,640.6z"/>
</svg>
